<?xml version="1.0" standalone="no"?>
<!DOCTYPE svg PUBLIC "-//W3C//DTD SVG 20010904//EN"
 "http://www.w3.org/TR/2001/REC-SVG-20010904/DTD/svg10.dtd">
<svg version="1.0" xmlns="http://www.w3.org/2000/svg"
 width="1000.000000pt" height="1000.000000pt" viewBox="0 0 1000.000000 1000.000000"
 preserveAspectRatio="xMidYMid meet">
<metadata>
Created by potrace 1.11, written by Peter Selinger 2001-2013
</metadata>
<g transform="translate(0.000000,1000.000000) scale(0.100000,-0.100000)"
fill="#000000" stroke="none">
<path d="M2864 6639 c-43 -8 -150 -55 -224 -99 -25 -15 -74 -43 -110 -62 -55
-29 -170 -93 -460 -256 -82 -45 -314 -174 -370 -204 -30 -17 -68 -38 -85 -48
-16 -10 -52 -30 -80 -45 -183 -101 -437 -242 -535 -297 -63 -35 -144 -80 -180
-100 -36 -20 -159 -89 -275 -153 -116 -65 -223 -125 -238 -133 -16 -8 -27 -15
-25 -17 3 -2 175 -99 313 -175 33 -18 150 -84 260 -145 110 -61 225 -125 255
-142 30 -16 174 -97 320 -178 146 -81 294 -164 330 -183 36 -19 81 -44 100
-55 19 -11 60 -34 90 -50 30 -17 222 -124 427 -238 205 -114 397 -217 428
-228 105 -40 192 -22 270 54 88 85 101 224 32 327 -28 41 -87 77 -432 268 -33
18 -193 107 -355 198 -162 90 -320 178 -350 194 -30 17 -85 48 -123 69 -38 21
-70 39 -72 39 -2 0 -27 14 -55 30 -28 17 -79 45 -113 64 -216 118 -267 148
-262 156 3 4 26 19 52 33 97 51 118 62 123 67 3 3 21 13 40 24 37 19 456 252
575 319 39 21 104 57 145 80 41 22 117 65 169 94 51 29 96 53 99 53 2 0 38 20
79 45 40 25 75 45 77 45 10 0 313 174 345 198 74 55 103 113 102 201 -2 152
-143 275 -287 250z"/>
<path d="M6950 6635 c-150 -40 -231 -180 -189 -328 23 -84 57 -108 489 -347
162 -90 309 -172 325 -182 17 -10 36 -21 44 -25 8 -4 82 -44 164 -90 82 -46
151 -83 154 -83 2 0 20 -11 41 -24 20 -13 162 -92 314 -176 l278 -153 -112
-64 c-62 -34 -113 -63 -114 -63 -1 0 -33 -17 -71 -39 -37 -21 -95 -53 -128
-71 -33 -18 -73 -41 -90 -50 -16 -9 -57 -32 -90 -50 -33 -18 -116 -65 -185
-103 -69 -39 -150 -84 -180 -100 -30 -17 -111 -62 -180 -100 -69 -38 -152 -85
-185 -102 -176 -96 -353 -198 -391 -227 -65 -49 -98 -120 -92 -200 12 -182
178 -295 338 -232 43 17 72 32 185 94 112 62 170 94 635 353 267 148 514 286
550 305 111 61 133 74 372 207 127 72 259 145 292 163 402 222 496 276 489
282 -7 7 -577 325 -703 393 -30 16 -64 35 -75 42 -11 6 -47 27 -80 45 -33 18
-175 97 -315 175 -300 167 -360 200 -420 233 -25 14 -90 50 -145 82 -55 31
-105 59 -110 61 -9 4 -198 107 -235 129 -125 73 -388 214 -429 230 -69 27 -96
29 -151 15z"/>
<path d="M4907 6085 c-1 -2 -33 -5 -71 -9 -564 -53 -998 -446 -1092 -990 -17
-97 -22 -279 -11 -387 26 -245 142 -479 321 -646 112 -105 205 -163 376 -237
89 -37 297 -80 454 -92 150 -11 437 -6 537 11 13 2 47 6 74 10 353 44 679 213
769 398 37 74 37 155 3 224 -45 88 -127 143 -215 143 -73 0 -116 -19 -209 -92
-154 -122 -264 -163 -508 -185 -154 -14 -396 -8 -540 13 -103 16 -264 75 -323
119 -97 72 -193 199 -208 275 0 3 -3 12 -7 20 -45 113 -27 353 38 504 69 162
238 310 421 370 112 37 180 45 339 41 165 -3 277 -27 400 -85 118 -55 185
-135 201 -238 9 -59 58 -157 91 -180 62 -44 146 -59 230 -42 44 10 65 21 103
58 75 73 83 114 85 407 2 364 -18 431 -144 496 -33 17 -61 23 -107 22 -61 0
-93 -13 -169 -68 -18 -12 -27 -11 -82 15 -116 54 -298 101 -443 115 -70 7
-307 14 -313 10z"/>
</g>
</svg>
